<mxfile host="app.diagrams.net" modified="2022-04-15T12:17:10.328Z" agent="5.0 (Windows NT 10.0; Win64; x64) AppleWebKit/537.36 (KHTML, like Gecko) Chrome/100.0.4896.88 Safari/537.36" etag="O8kiHuoTLjTy_t6t79cD" version="16.0.3" type="github">
  <diagram id="U7Sh4XI4_lEwecZKL2b0" name="Page-1">
    <mxGraphModel dx="893" dy="437" grid="1" gridSize="10" guides="1" tooltips="1" connect="1" arrows="1" fold="1" page="1" pageScale="1" pageWidth="1169" pageHeight="1654" math="0" shadow="0">
      <root>
        <mxCell id="0" />
        <mxCell id="1" parent="0" />
        <mxCell id="BK2ERTcbWxdd33MLj58m-12" style="edgeStyle=orthogonalEdgeStyle;rounded=0;orthogonalLoop=1;jettySize=auto;html=1;exitX=0.5;exitY=1;exitDx=0;exitDy=0;entryX=0.5;entryY=0;entryDx=0;entryDy=0;" edge="1" parent="1" source="BK2ERTcbWxdd33MLj58m-1" target="BK2ERTcbWxdd33MLj58m-2">
          <mxGeometry relative="1" as="geometry" />
        </mxCell>
        <mxCell id="BK2ERTcbWxdd33MLj58m-1" value="开始" style="rounded=1;whiteSpace=wrap;html=1;" vertex="1" parent="1">
          <mxGeometry x="110" y="30" width="80" height="30" as="geometry" />
        </mxCell>
        <mxCell id="BK2ERTcbWxdd33MLj58m-13" style="edgeStyle=orthogonalEdgeStyle;rounded=0;orthogonalLoop=1;jettySize=auto;html=1;exitX=0.5;exitY=1;exitDx=0;exitDy=0;entryX=0.5;entryY=0;entryDx=0;entryDy=0;" edge="1" parent="1" source="BK2ERTcbWxdd33MLj58m-2" target="BK2ERTcbWxdd33MLj58m-3">
          <mxGeometry relative="1" as="geometry" />
        </mxCell>
        <mxCell id="BK2ERTcbWxdd33MLj58m-2" value="初始化SJA1000，SJA1000进入工作模式" style="rounded=1;whiteSpace=wrap;html=1;" vertex="1" parent="1">
          <mxGeometry x="80" y="80" width="140" height="40" as="geometry" />
        </mxCell>
        <mxCell id="BK2ERTcbWxdd33MLj58m-14" style="edgeStyle=orthogonalEdgeStyle;rounded=0;orthogonalLoop=1;jettySize=auto;html=1;exitX=0.5;exitY=1;exitDx=0;exitDy=0;entryX=0.5;entryY=0;entryDx=0;entryDy=0;" edge="1" parent="1" source="BK2ERTcbWxdd33MLj58m-3" target="BK2ERTcbWxdd33MLj58m-4">
          <mxGeometry relative="1" as="geometry" />
        </mxCell>
        <mxCell id="BK2ERTcbWxdd33MLj58m-20" style="edgeStyle=orthogonalEdgeStyle;rounded=0;orthogonalLoop=1;jettySize=auto;html=1;exitX=1;exitY=0.5;exitDx=0;exitDy=0;" edge="1" parent="1" source="BK2ERTcbWxdd33MLj58m-3">
          <mxGeometry relative="1" as="geometry">
            <mxPoint x="150" y="130" as="targetPoint" />
            <Array as="points">
              <mxPoint x="280" y="165" />
              <mxPoint x="280" y="130" />
            </Array>
          </mxGeometry>
        </mxCell>
        <mxCell id="BK2ERTcbWxdd33MLj58m-3" value="等待接收中断" style="rhombus;whiteSpace=wrap;html=1;" vertex="1" parent="1">
          <mxGeometry x="100" y="140" width="100" height="50" as="geometry" />
        </mxCell>
        <mxCell id="BK2ERTcbWxdd33MLj58m-15" style="edgeStyle=orthogonalEdgeStyle;rounded=0;orthogonalLoop=1;jettySize=auto;html=1;exitX=0.5;exitY=1;exitDx=0;exitDy=0;entryX=0.5;entryY=0;entryDx=0;entryDy=0;" edge="1" parent="1" source="BK2ERTcbWxdd33MLj58m-4" target="BK2ERTcbWxdd33MLj58m-5">
          <mxGeometry relative="1" as="geometry" />
        </mxCell>
        <mxCell id="BK2ERTcbWxdd33MLj58m-4" value="进入中断,清除中断标志" style="rounded=1;whiteSpace=wrap;html=1;" vertex="1" parent="1">
          <mxGeometry x="85" y="200" width="130" height="30" as="geometry" />
        </mxCell>
        <mxCell id="BK2ERTcbWxdd33MLj58m-16" style="edgeStyle=orthogonalEdgeStyle;rounded=0;orthogonalLoop=1;jettySize=auto;html=1;exitX=0.5;exitY=1;exitDx=0;exitDy=0;entryX=0.5;entryY=0;entryDx=0;entryDy=0;" edge="1" parent="1" source="BK2ERTcbWxdd33MLj58m-5" target="BK2ERTcbWxdd33MLj58m-6">
          <mxGeometry relative="1" as="geometry" />
        </mxCell>
        <mxCell id="BK2ERTcbWxdd33MLj58m-5" value="通知对方收到并读取数据" style="rounded=1;whiteSpace=wrap;html=1;" vertex="1" parent="1">
          <mxGeometry x="80" y="250" width="140" height="30" as="geometry" />
        </mxCell>
        <mxCell id="BK2ERTcbWxdd33MLj58m-17" style="edgeStyle=orthogonalEdgeStyle;rounded=0;orthogonalLoop=1;jettySize=auto;html=1;exitX=0.5;exitY=1;exitDx=0;exitDy=0;entryX=0.5;entryY=0;entryDx=0;entryDy=0;" edge="1" parent="1" source="BK2ERTcbWxdd33MLj58m-6" target="BK2ERTcbWxdd33MLj58m-7">
          <mxGeometry relative="1" as="geometry" />
        </mxCell>
        <mxCell id="BK2ERTcbWxdd33MLj58m-6" value="发送完毕" style="rhombus;whiteSpace=wrap;html=1;" vertex="1" parent="1">
          <mxGeometry x="100" y="300" width="100" height="50" as="geometry" />
        </mxCell>
        <mxCell id="BK2ERTcbWxdd33MLj58m-18" style="edgeStyle=orthogonalEdgeStyle;rounded=0;orthogonalLoop=1;jettySize=auto;html=1;exitX=0.5;exitY=1;exitDx=0;exitDy=0;entryX=0.5;entryY=0;entryDx=0;entryDy=0;" edge="1" parent="1" source="BK2ERTcbWxdd33MLj58m-7" target="BK2ERTcbWxdd33MLj58m-10">
          <mxGeometry relative="1" as="geometry" />
        </mxCell>
        <mxCell id="BK2ERTcbWxdd33MLj58m-7" value="处理数据信息" style="rounded=1;whiteSpace=wrap;html=1;" vertex="1" parent="1">
          <mxGeometry x="90" y="360" width="120" height="20" as="geometry" />
        </mxCell>
        <mxCell id="BK2ERTcbWxdd33MLj58m-19" style="edgeStyle=orthogonalEdgeStyle;rounded=0;orthogonalLoop=1;jettySize=auto;html=1;exitX=0.5;exitY=1;exitDx=0;exitDy=0;entryX=0.5;entryY=0;entryDx=0;entryDy=0;" edge="1" parent="1" source="BK2ERTcbWxdd33MLj58m-10" target="BK2ERTcbWxdd33MLj58m-11">
          <mxGeometry relative="1" as="geometry" />
        </mxCell>
        <mxCell id="BK2ERTcbWxdd33MLj58m-10" value="处理是否完成" style="rhombus;whiteSpace=wrap;html=1;" vertex="1" parent="1">
          <mxGeometry x="100" y="400" width="100" height="50" as="geometry" />
        </mxCell>
        <mxCell id="BK2ERTcbWxdd33MLj58m-11" value="清空SJA1000所以缓冲区，退出中断" style="rounded=1;whiteSpace=wrap;html=1;" vertex="1" parent="1">
          <mxGeometry x="90" y="470" width="120" height="40" as="geometry" />
        </mxCell>
        <mxCell id="BK2ERTcbWxdd33MLj58m-21" value="&lt;font style=&quot;font-size: 10px&quot;&gt;N&lt;/font&gt;" style="text;strokeColor=none;fillColor=none;html=1;fontSize=24;fontStyle=1;verticalAlign=middle;align=center;" vertex="1" parent="1">
          <mxGeometry x="190" y="130" width="100" height="40" as="geometry" />
        </mxCell>
      </root>
    </mxGraphModel>
  </diagram>
</mxfile>
